<svg xmlns="http://www.w3.org/2000/svg" width="1035.278" height="325.435" viewBox="0 0 1035.278 325.435">
  <g id="Group_4" data-name="Group 4" transform="translate(-2198.049 -4556.971)">
    <path id="Path_1" data-name="Path 1" d="M2198.049,4719.688V4556.971H3233.327v325.435H2198.049Z" fill="#fff" opacity="0"/>
    <g id="Group_3" data-name="Group 3" transform="translate(2245.743 4604.63)">
      <g id="Group_1" data-name="Group 1" transform="translate(277.74 71.572)">
        <path id="Path_2" data-name="Path 2" d="M3103.379,4875.3q-8.062-7.449-22.232-7.451h-34.57v86.973h18.079v-30.294h14.9q15.268,0,23.576-7.573t8.306-21.133Q3111.441,4882.752,3103.379,4875.3Zm-13.5,30.539q-4.094,3.421-11.91,3.42h-13.314v-26.141H3079.8q6.6,0,10.383,3.42t3.787,9.528Q3093.973,4902.419,3089.881,4905.839Z" transform="translate(-3046.577 -4867.849)" fill="#05192b"/>
        <path id="Path_3" data-name="Path 3" d="M3256.365,4926.134q-14.172,0-23.209,9.406-9.041,9.651-9.039,23.942,0,14.416,9.039,23.82,8.916,9.528,23.209,9.528t23.21-9.528q9.038-9.405,9.039-23.82,0-14.292-9.039-23.942Q3270.534,4926.135,3256.365,4926.134Zm11.483,47.885a14.823,14.823,0,0,1-22.843,0q-4.278-5.374-4.275-14.537t4.275-14.536a14.821,14.821,0,0,1,22.843,0q4.151,5.253,4.153,14.536T3267.848,4974.019Z" transform="translate(-3156.025 -4903.78)" fill="#05192b"/>
        <path id="Path_4" data-name="Path 4" d="M3451.534,4926.134q-13.193,0-19.667,9.773l-.611-8.185h-15.269v87.951h17.223V4984.89q6.23,7.942,16.98,7.94a23.953,23.953,0,0,0,19.545-9.406q7.573-9.405,7.573-24.431,0-14.9-7.329-23.942A22.9,22.9,0,0,0,3451.534,4926.134Zm5.252,46.418a12.765,12.765,0,0,1-20.461,0q-3.971-5.131-3.97-13.559t3.909-13.5a12.919,12.919,0,0,1,20.522,0q3.907,5.071,3.909,13.5T3456.787,4972.552Z" transform="translate(-3274.308 -4903.78)" fill="#05192b"/>
        <path id="Path_5" data-name="Path 5" d="M3638.3,4963.989q0,6.964-3.42,11.177a10.942,10.942,0,0,1-8.917,4.214,8.4,8.4,0,0,1-6.78-2.81q-2.382-2.809-2.382-7.939v-38.357h-17.223v42.265q0,10.384,5.436,16.369t15.208,5.985q12.094,0,18.2-10.139l.244,8.55h16.857v-63.031H3638.3Z" transform="translate(-3387.483 -4906.333)" fill="#05192b"/>
        <path id="Path_6" data-name="Path 6" d="M3813.929,4926.134q-13.192,0-19.667,9.773l-.611-8.185h-15.269v87.951h17.223V4984.89q6.23,7.942,16.979,7.94a23.953,23.953,0,0,0,19.545-9.406q7.573-9.405,7.573-24.431,0-14.9-7.329-23.942A22.9,22.9,0,0,0,3813.929,4926.134Zm5.253,46.418a12.765,12.765,0,0,1-20.461,0q-3.971-5.131-3.97-13.559t3.909-13.5a12.918,12.918,0,0,1,20.522,0q3.908,5.071,3.909,13.5T3819.181,4972.552Z" transform="translate(-3497.714 -4903.78)" fill="#05192b"/>
        <path id="Path_7" data-name="Path 7" d="M3994.346,4953.985l-13.559-2.809q-7.086-1.586-7.085-6.352a5.72,5.72,0,0,1,2.565-4.886,11.532,11.532,0,0,1,6.841-1.833,13.6,13.6,0,0,1,8.123,2.321,9.292,9.292,0,0,1,3.847,6.475l15.514-.611a20.99,20.99,0,0,0-8.551-14.719q-7.33-5.435-18.69-5.437-11.727,0-18.689,5.62T3957.7,4946.9q0,14.782,18.323,18.445l12.459,2.443q8.306,1.712,8.307,6.352a5.7,5.7,0,0,1-3.053,5.13,16.109,16.109,0,0,1-8.307,1.833q-11.726,0-13.437-9.772l-15.758.611q1.343,10.14,8.551,15.635,7.084,5.5,20.034,5.5t20.4-5.619q7.573-5.5,7.574-15.391,0-7.33-4.52-11.727T3994.346,4953.985Z" transform="translate(-3607.355 -4903.78)" fill="#05192b"/>
        <path id="Path_8" data-name="Path 8" d="M4196.525,4926.134q-12.459,0-18.567,11.36-4.644-11.36-18.079-11.36a18.835,18.835,0,0,0-17.1,9.65l-.244-8.062h-16.857v63.031H4142.9v-33.714q0-6.963,3.115-11.177a9.651,9.651,0,0,1,8.124-4.215,7.357,7.357,0,0,1,6.291,2.871,12.274,12.274,0,0,1,2.138,7.513v38.722h17.223v-33.714q0-6.963,3.115-11.177a9.65,9.65,0,0,1,8.123-4.215,7.355,7.355,0,0,1,6.291,2.871,12.271,12.271,0,0,1,2.138,7.513v38.722h17.224V4948.61q0-10.26-5.375-16.369T4196.525,4926.134Z" transform="translate(-3711.811 -4903.78)" fill="#05192b"/>
        <path id="Path_9" data-name="Path 9" d="M4442.4,4949.907q0-23.454-27.24-23.454-25.287,0-26.875,20.277l15.758.244q.609-4.4,3.3-6.352t7.94-1.955q10.627,0,10.627,6.84v4.642l-21.988,4.4q-19.179,3.788-19.178,19.056,0,8.675,5.985,13.925t15.88,5.253q12.7,0,19.422-8.185,0,.247,1.343,6.352h17.468q-2.445-4.274-2.443-13.192Zm-16.49,15.88q0,6.6-3.97,10.444a14.371,14.371,0,0,1-10.444,3.848,11.422,11.422,0,0,1-7.268-2.077,6.656,6.656,0,0,1-2.626-5.5q0-6.349,8.184-7.939l16.125-3.42Z" transform="translate(-3871.521 -4903.977)" fill="#05192b"/>
        <path id="Path_10" data-name="Path 10" d="M4582.629,4935.168l.245-8.428h-16.858v63.031h17.224v-30.66q0-18.2,15.636-18.2.367,0,3.543.244V4925.4a16.617,16.617,0,0,0-5.5-.855Q4586.78,4924.541,4582.629,4935.168Z" transform="translate(-3983.268 -4902.798)" fill="#05192b"/>
        <path id="Path_11" data-name="Path 11" d="M4713.187,4911.172V4899.7h-12.556v-19.973h-17.143V4899.7h-7.6v11.469h7.6v36.247a15.94,15.94,0,0,0,1.57,7.605,11.162,11.162,0,0,0,4.286,4.467,17.781,17.781,0,0,0,6.278,2.113,50.012,50.012,0,0,0,7.546.543q2.534,0,5.19-.121a41.116,41.116,0,0,0,4.829-.483v-13.28a23.322,23.322,0,0,1-2.535.362q-1.33.122-2.777.121-4.345,0-5.794-1.449t-1.449-5.794v-30.332Z" transform="translate(-4051.001 -4875.174)" fill="#05192b"/>
      </g>
      <g id="Group_2" data-name="Group 2" transform="translate(0 0)">
        <path id="Path_9581" data-name="Path 9581" d="M2432.264,4681.235h10.4c25.969,0,44.49,4.266,60.3,12.273a86.085,86.085,0,0,1,36.624,34.8c8.438,15,12.937,32.6,12.937,57.289v21.387c0,24.667-4.5,42.28-12.937,57.277a86.011,86.011,0,0,1-36.632,34.793c-15.79,8.032-34.322,12.3-60.292,12.3h-10.4c-25.969,0-44.49-4.265-60.292-12.3a85.957,85.957,0,0,1-36.631-34.793c-8.437-15-12.937-32.6-12.937-57.277V4785.59c0-24.667,4.5-42.28,12.937-57.292a86,86,0,0,1,36.631-34.793C2387.767,4685.5,2406.3,4681.235,2432.264,4681.235Z" transform="translate(-2322.405 -4681.235)" fill="#1c86fa"/>
        <path id="Path_12" data-name="Path 12" d="M2529.934,4831.235a57.529,57.529,0,0,0-57.5,55.833l-.027-.024v68.838a19.176,19.176,0,0,0,19.177,19.176h0a19.176,19.176,0,0,0,19.176-19.176v-.762a68.573,68.573,0,0,1-30.395-18.308,5.753,5.753,0,1,1,8.262-8.009c.083.086.17.169.254.254l.028.029q.275.281.554.558l.123.121q.261.256.525.51.158.152.316.3l.215.2c.23.216.462.432.7.644l.028.025.052.045a57.048,57.048,0,0,0,19.343,11.547v-.023a57.59,57.59,0,0,0,57.783-11.6l.192-.175q.381-.349.756-.7c.133-.126.264-.253.4-.38q.289-.278.574-.561c.17-.169.338-.34.507-.511a57.526,57.526,0,0,0-41.03-97.85Z" transform="translate(-2414.876 -4773.706)" fill="#fff"/>
      </g>
    </g>
  </g>
</svg>
