<svg width="136" height="33" viewBox="0 0 136 33" fill="none" xmlns="http://www.w3.org/2000/svg">
<g clip-path="url(#clip0)">
<path d="M17.8715 6.05542H5.81286C2.66321 6.05542 0.109924 8.58557 0.109924 11.7067V22.8384C0.109924 25.9595 2.66321 28.4897 5.81286 28.4897H17.8715C21.0212 28.4897 23.5745 25.9595 23.5745 22.8384V11.7067C23.5745 8.58557 21.0212 6.05542 17.8715 6.05542Z" fill="#FC527E"/>
<path d="M5.93865 24.5815C5.35829 23.9187 5.05937 23.059 5.10452 22.1827C5.11865 21.4901 5.20371 20.8007 5.35838 20.1252L6.56425 14.6267C6.56425 14.5189 6.64585 14.2404 6.74558 13.7822C6.84628 13.2884 6.8949 12.7855 6.89065 12.2818C6.90657 12.035 6.84308 11.7897 6.70931 11.581C6.64975 11.5074 6.5736 11.4488 6.48698 11.4098C6.40036 11.3708 6.30571 11.3525 6.21065 11.3564C5.71127 11.3963 5.23642 11.5876 4.85065 11.9044C4.22423 12.3768 3.67657 12.9437 3.22772 13.5845C3.16326 13.6893 3.07454 13.7774 2.9689 13.8414C2.86327 13.9055 2.74375 13.9437 2.62025 13.9529C2.5264 13.9498 2.43465 13.9246 2.35264 13.8792C2.27063 13.8339 2.20074 13.7698 2.14878 13.6923C2.0116 13.5283 1.9377 13.3213 1.94025 13.1083C1.97441 12.6137 2.16472 12.1422 2.48425 11.7607C3.80798 9.96376 5.34931 9.06531 7.12638 9.06531C7.46197 9.05091 7.79686 9.10667 8.10928 9.22896C8.4217 9.35124 8.70464 9.53732 8.93971 9.77509C9.42863 10.3639 9.66902 11.1171 9.61065 11.8775C9.61376 12.4791 9.56828 13.0799 9.47465 13.6744C9.38398 14.2224 9.22985 14.9771 9.01225 15.9205L8.25065 19.4514L8.15998 20.0713C8.09651 20.3678 8.04211 20.6463 8.00585 20.9069C7.96969 21.1659 7.95151 21.427 7.95145 21.6885C7.93088 22.0473 8.05478 22.3995 8.29598 22.6678C8.42574 22.794 8.58068 22.892 8.75086 22.9554C8.92104 23.0189 9.10272 23.0464 9.28425 23.0362C9.74226 23.0006 10.1882 22.8731 10.595 22.6615C11.0018 22.4499 11.3609 22.1586 11.6506 21.8053C12.6422 20.6337 13.3936 19.2818 13.8629 17.8252C14.6397 15.5409 15.1596 13.1787 15.4133 10.7813C15.4492 10.3036 15.585 9.83854 15.8122 9.41571C15.9366 9.27136 16.0957 9.16032 16.2747 9.09281C16.4537 9.0253 16.647 9.00349 16.8368 9.02937C17.0246 9.01549 17.2131 9.04475 17.3877 9.11487C17.5623 9.185 17.7181 9.2941 17.8432 9.43368C18.0913 9.83732 18.1936 10.3125 18.1333 10.7813C18.1266 11.2421 18.0842 11.7017 18.0064 12.156C17.9248 12.713 17.7978 13.5036 17.6346 14.5189C17.278 16.4775 17 18.2744 16.8005 19.9096C16.7161 20.4569 16.6677 21.0092 16.6554 21.5627C16.6262 21.9942 16.755 22.4217 17.0181 22.7667C17.1375 22.9017 17.2856 23.0089 17.4518 23.0803C17.618 23.1518 17.7981 23.1858 17.9792 23.1799C18.4302 23.1706 18.8673 23.023 19.2304 22.7577C19.7684 22.3459 20.2554 21.8724 20.681 21.3471C20.7421 21.2653 20.8212 21.1985 20.9124 21.1517C21.0035 21.105 21.1043 21.0796 21.2069 21.0776C21.2871 21.078 21.3657 21.0999 21.4344 21.1411C21.503 21.1822 21.5591 21.241 21.5968 21.3112C21.705 21.5059 21.7553 21.7271 21.7418 21.9491C21.7667 22.3745 21.6382 22.7948 21.3792 23.135C20.8284 23.8509 20.1491 24.4601 19.3754 24.9319C18.7466 25.3006 18.0298 25.496 17.2992 25.4979C16.4009 25.5551 15.5158 25.2616 14.833 24.6803C14.5491 24.4039 14.3266 24.0716 14.1798 23.7049C14.033 23.3383 13.9652 22.9452 13.9808 22.551C14.0264 21.5964 14.1293 20.6454 14.289 19.7029C13.8081 21.3054 12.9682 22.7796 11.832 24.0155C11.394 24.4824 10.8636 24.855 10.274 25.11C9.6844 25.3651 9.04812 25.4971 8.40478 25.4979C7.95175 25.5261 7.49781 25.4591 7.07279 25.3011C6.64776 25.1432 6.26126 24.898 5.93865 24.5815Z" fill="white"/>
<path d="M35.5142 13.0814C35.4695 13.1192 35.4175 13.1476 35.3614 13.1649C35.3053 13.1823 35.2463 13.1882 35.1878 13.1823C35.1294 13.1765 35.0727 13.1589 35.0213 13.1308C34.9699 13.1026 34.9247 13.0644 34.8886 13.0185C34.5478 12.5959 34.1255 12.2447 33.6465 11.9853C32.9834 11.6135 32.2321 11.4243 31.4705 11.4372C31.1106 11.4366 30.7517 11.4757 30.4006 11.554C30.0657 11.6218 29.7441 11.7432 29.4486 11.9134C29.1816 12.0724 28.9527 12.287 28.7777 12.5423C28.615 12.8141 28.5303 13.1248 28.5329 13.4408C28.5213 13.7474 28.6012 14.0507 28.7624 14.3127C28.9236 14.5747 29.1591 14.7839 29.4395 14.9142C30.3019 15.332 31.2166 15.6341 32.1595 15.8127C32.8736 15.9771 33.5763 16.1871 34.263 16.4416C34.8684 16.6533 35.4373 16.9563 35.9494 17.34C36.4181 17.6851 36.8023 18.1304 37.0737 18.6428C37.3542 19.2 37.4913 19.8173 37.4726 20.4397C37.5028 21.257 37.3185 22.0681 36.9377 22.7936C36.5969 23.4202 36.1124 23.9587 35.5233 24.3659C34.9102 24.7908 34.2208 25.0957 33.4923 25.2643C32.7257 25.4424 31.9405 25.5298 31.1531 25.5249C29.9431 25.5256 28.7447 25.2906 27.6262 24.8331C26.6406 24.4417 25.7616 23.8262 25.0603 23.0362C25.0214 22.9938 24.9916 22.944 24.9727 22.8898C24.9539 22.8356 24.9463 22.7782 24.9505 22.7211C24.9548 22.6639 24.9707 22.6082 24.9974 22.5573C25.0241 22.5065 25.0609 22.4615 25.1057 22.4252L26.6561 21.1135C26.7472 21.0407 26.8632 21.0057 26.9798 21.0157C27.0964 21.0258 27.2046 21.0801 27.2817 21.1674C27.6979 21.6563 28.2021 22.0645 28.7686 22.3713C29.5166 22.7937 30.3648 23.0108 31.2257 23.0003C31.6126 23.0028 31.9987 22.9637 32.3771 22.8835C32.7316 22.8147 33.0719 22.6871 33.3835 22.5061C33.6728 22.3332 33.918 22.0965 34.0998 21.8143C34.2852 21.479 34.376 21.1003 34.3627 20.7182C34.3724 20.3738 34.2772 20.0346 34.0897 19.7445C33.9021 19.4545 33.6308 19.2271 33.311 19.092C32.3225 18.6451 31.285 18.3134 30.2193 18.1037C29.6843 17.9689 29.1403 17.8072 28.5963 17.6185C28.0628 17.436 27.5611 17.1723 27.1094 16.8369C26.6618 16.5051 26.2908 16.0824 26.0214 15.597C25.7283 15.0276 25.5848 14.3941 25.6043 13.7552C25.5811 13.0384 25.741 12.3274 26.0691 11.6882C26.3972 11.0489 26.8829 10.5021 27.4811 10.0985C28.0562 9.68822 28.7012 9.38388 29.3851 9.20009C30.1011 9.03525 30.8355 8.96277 31.5702 8.98446C32.7017 8.97934 33.8222 9.20568 34.8614 9.64931C35.7158 9.98453 36.4729 10.5248 37.0646 11.2216C37.1353 11.3113 37.1691 11.4243 37.159 11.5377C37.1489 11.6511 37.0957 11.7565 37.0102 11.8325L35.5142 13.0814Z" fill="#3C3C3C"/>
<path d="M55.7781 17.1333V17.7622C55.7757 17.8774 55.7279 17.9871 55.6448 18.0677C55.5618 18.1484 55.4501 18.1935 55.3338 18.1935H43.6197C43.5574 18.1932 43.4956 18.2059 43.4385 18.2307C43.3815 18.2556 43.3303 18.2921 43.2884 18.3379C43.2465 18.3837 43.2148 18.4377 43.1953 18.4964C43.1759 18.5551 43.1691 18.6172 43.1754 18.6787C43.2463 19.1545 43.3868 19.6176 43.5925 20.0533C43.8629 20.6228 44.2415 21.1352 44.7077 21.5627C45.6834 22.4518 46.9636 22.94 48.289 22.9283C49.2601 22.9521 50.2194 22.7129 51.0634 22.2365C51.6649 21.886 52.199 21.4328 52.641 20.8978C52.714 20.8085 52.8193 20.7509 52.9345 20.7375C53.0497 20.724 53.1657 20.7558 53.2576 20.826L54.7717 22.0299C54.8167 22.0656 54.8541 22.1099 54.8817 22.16C54.9093 22.2102 54.9265 22.2653 54.9324 22.3222C54.9383 22.379 54.9328 22.4365 54.9161 22.4912C54.8994 22.5459 54.8719 22.5967 54.8352 22.6408C54.0996 23.5399 53.1702 24.2644 52.1152 24.7612C49.8376 25.7335 47.2699 25.801 44.9434 24.9498C43.9573 24.5787 43.059 24.0098 42.305 23.2787C41.5515 22.5335 40.9592 21.6439 40.5643 20.6642C40.1283 19.5911 39.9126 18.4427 39.9296 17.2861C39.9188 16.1374 40.128 14.9972 40.5461 13.9259C40.9341 12.9395 41.5237 12.0433 42.2779 11.2934C43.0254 10.5585 43.9131 9.97822 44.889 9.58637C46.9556 8.80227 49.2417 8.80227 51.3082 9.58637C52.2241 9.93998 53.0482 10.4926 53.72 11.2036C54.396 11.9505 54.914 12.8243 55.2432 13.7731C55.6084 14.856 55.7892 15.9916 55.7781 17.1333ZM52.097 15.8755C52.1591 15.876 52.2205 15.8633 52.2772 15.8384C52.3339 15.8134 52.3845 15.7767 52.4257 15.7308C52.4669 15.6848 52.4978 15.6307 52.5161 15.572C52.5345 15.5133 52.54 15.4513 52.5322 15.3903C52.4869 14.9619 52.3926 14.5399 52.2512 14.1325C52.0696 13.6125 51.7861 13.1331 51.417 12.722C51.0304 12.3142 50.5606 11.9926 50.0389 11.7786C49.4274 11.5394 48.774 11.4234 48.1168 11.4372C47.4723 11.4349 46.833 11.5506 46.2309 11.7786C45.6653 11.9957 45.1456 12.3157 44.6986 12.722C44.2601 13.1252 43.8978 13.6029 43.6288 14.1325C43.4252 14.5193 43.2816 14.9342 43.2027 15.3634C43.1922 15.4262 43.1955 15.4905 43.2125 15.5518C43.2295 15.6132 43.2598 15.6702 43.3011 15.7188C43.3425 15.7675 43.394 15.8067 43.4521 15.8338C43.5103 15.8608 43.5736 15.8751 43.6379 15.8755H52.097Z" fill="#3C3C3C"/>
<path d="M59.6224 11.1678C59.6224 10.7006 59.6224 10.2693 59.559 9.874C59.5552 9.81514 59.5637 9.75615 59.5839 9.70067C59.6041 9.6452 59.6356 9.59442 59.6764 9.55147C59.7172 9.50853 59.7664 9.47433 59.8211 9.45099C59.8757 9.42765 59.9346 9.41567 59.9942 9.41579H62.0976C62.207 9.41541 62.3126 9.45588 62.3932 9.52914C62.4739 9.6024 62.5237 9.70307 62.5328 9.8111C62.5328 10.1076 62.5328 10.431 62.5963 10.7904C62.5963 11.3115 62.5963 11.7338 62.5963 12.0662H62.696C63.1252 11.1539 63.8036 10.379 64.6544 9.82907C65.5171 9.25751 66.5363 8.96267 67.5739 8.98453C67.8559 8.9822 68.1377 9.00022 68.4171 9.03844C68.526 9.05191 68.6258 9.10569 68.6964 9.189C68.7671 9.27231 68.8033 9.37899 68.7979 9.48766L68.7072 11.4912C68.7028 11.5519 68.6859 11.6111 68.6576 11.6652C68.6294 11.7193 68.5903 11.7671 68.5428 11.8058C68.4953 11.8444 68.4404 11.8731 68.3814 11.8901C68.3224 11.9071 68.2605 11.912 68.1995 11.9045C67.8993 11.8597 67.5964 11.8357 67.2928 11.8326C66.6103 11.8138 65.933 11.9555 65.3163 12.2459C64.777 12.512 64.3034 12.8923 63.9291 13.36C63.5515 13.8333 63.2739 14.3772 63.1131 14.9592C62.9308 15.5779 62.8392 16.2194 62.8411 16.8639V24.6804C62.8423 24.7378 62.8319 24.7948 62.8106 24.8482C62.7893 24.9016 62.7574 24.9502 62.7169 24.9912C62.6763 25.0322 62.628 25.0648 62.5746 25.087C62.5212 25.1092 62.4638 25.1207 62.4059 25.1207H60.1392C60.0813 25.1207 60.024 25.1092 59.9706 25.087C59.9172 25.0648 59.8688 25.0322 59.8282 24.9912C59.7877 24.9502 59.7558 24.9016 59.7345 24.8482C59.7132 24.7948 59.7028 24.7378 59.704 24.6804V12.794C59.6587 12.3717 59.6406 11.8326 59.6224 11.1678Z" fill="#3C3C3C"/>
<path d="M73.993 33.0718H71.7264C71.6685 33.0718 71.6111 33.0603 71.5577 33.0381C71.5043 33.0159 71.4559 32.9833 71.4154 32.9423C71.3749 32.9013 71.343 32.8527 71.3217 32.7993C71.3003 32.746 71.29 32.6889 71.2912 32.6315V9.88281C71.2899 9.82584 71.3004 9.76922 71.3218 9.71634C71.3432 9.66346 71.3752 9.61543 71.4159 9.57514C71.4565 9.53485 71.505 9.50313 71.5584 9.48189C71.6117 9.46065 71.6689 9.45033 71.7264 9.45156H73.9296C74.0418 9.4562 74.1479 9.50367 74.2257 9.58405C74.3034 9.66443 74.3467 9.77148 74.3466 9.88281V11.9043H74.4464C74.9934 11.0243 75.7703 10.3072 76.6949 9.82891C77.758 9.272 78.9471 8.99366 80.1493 9.0203C81.2548 9.00463 82.3513 9.21888 83.368 9.64922C84.3194 10.0688 85.1717 10.6809 85.8704 11.4461C86.5767 12.2107 87.125 13.105 87.4843 14.0786C88.2458 16.1719 88.2458 18.463 87.4843 20.5564C87.1345 21.5358 86.5921 22.4366 85.8885 23.2068C85.1921 23.9745 84.3391 24.5869 83.3861 25.0037C82.3438 25.4447 81.219 25.662 80.0859 25.6416C78.9766 25.6476 77.881 25.3984 76.8853 24.9139C75.9181 24.4611 75.096 23.7521 74.5098 22.8654H74.4101V32.7483C74.3862 32.8402 74.3323 32.9217 74.2569 32.9801C74.1815 33.0386 74.0888 33.0708 73.993 33.0718ZM84.8731 17.2321C84.876 16.5121 84.7627 15.7963 84.5376 15.1118C84.3183 14.4558 83.9769 13.8463 83.5312 13.3149C83.0789 12.7828 82.516 12.3538 81.881 12.0571C81.1604 11.7359 80.3772 11.5764 79.5872 11.5899C78.8543 11.5823 78.1285 11.7327 77.46 12.0306C76.7916 12.3284 76.1964 12.7666 75.7157 13.3149C75.2447 13.8425 74.8759 14.4517 74.6277 15.1118C74.1075 16.5 74.1075 18.0271 74.6277 19.4153C74.8683 20.0791 75.2379 20.6896 75.7157 21.2122C76.1836 21.7369 76.7543 22.1617 77.393 22.4611C78.0781 22.7726 78.8245 22.9292 79.5781 22.9193C80.3678 22.9398 81.152 22.7832 81.872 22.4611C82.506 22.1549 83.0682 21.7203 83.5221 21.1853C83.9679 20.6538 84.3092 20.0444 84.5285 19.3884C84.7575 18.6924 84.8708 17.9641 84.864 17.2321H84.8731Z" fill="#3C3C3C"/>
<path d="M95.6896 3.74662C95.6974 4.01394 95.6472 4.27981 95.5424 4.52625C95.4376 4.77269 95.2807 4.99398 95.0822 5.17516C94.6819 5.54505 94.1514 5.74499 93.6043 5.73219C93.3345 5.73821 93.0663 5.69041 92.8155 5.59162C92.5647 5.49284 92.3366 5.3451 92.1446 5.15719C91.9563 4.97384 91.8084 4.75387 91.7101 4.51111C91.6118 4.26836 91.5652 4.00807 91.5734 3.74662C91.5666 3.47893 91.6163 3.21279 91.7194 2.96524C91.8224 2.7177 91.9765 2.49421 92.1718 2.30911C92.3633 2.11999 92.5912 1.97086 92.8419 1.87055C93.0927 1.77024 93.3611 1.72079 93.6315 1.72511C93.9045 1.72139 94.1755 1.77106 94.4291 1.87127C94.6827 1.97148 94.9139 2.12026 95.1094 2.30911C95.3027 2.49476 95.4543 2.71877 95.5543 2.96649C95.6543 3.2142 95.7004 3.48004 95.6896 3.74662ZM94.783 25.1207H92.48C92.4221 25.1207 92.3648 25.1093 92.3114 25.087C92.258 25.0648 92.2096 25.0322 92.1691 24.9912C92.1285 24.9502 92.0967 24.9016 92.0753 24.8483C92.054 24.7949 92.0436 24.7378 92.0448 24.6805V9.88302C92.0436 9.82605 92.054 9.76943 92.0755 9.71655C92.0969 9.66367 92.1289 9.61564 92.1696 9.57535C92.2102 9.53506 92.2587 9.50334 92.3121 9.4821C92.3654 9.46086 92.4226 9.45054 92.48 9.45177H94.7467C94.8057 9.44801 94.8648 9.45646 94.9203 9.47656C94.9758 9.49667 95.0265 9.52799 95.0691 9.56855C95.1118 9.60911 95.1454 9.65801 95.1679 9.71215C95.1905 9.76628 95.2014 9.82448 95.2 9.88302V24.6805C95.2065 24.7415 95.1997 24.8032 95.1802 24.8615C95.1607 24.9198 95.1288 24.9732 95.0868 25.0183C95.0447 25.0634 94.9934 25.099 94.9363 25.1229C94.8793 25.1468 94.8177 25.1583 94.7558 25.1566L94.783 25.1207Z" fill="#3C3C3C"/>
<path d="M102.979 25.1565H100.713C100.655 25.1565 100.597 25.145 100.544 25.1228C100.49 25.1006 100.442 25.068 100.402 25.027C100.361 24.986 100.329 24.9374 100.308 24.884C100.287 24.8306 100.276 24.7736 100.277 24.7162V0.503032C100.277 0.388657 100.323 0.278965 100.405 0.198089C100.486 0.117213 100.597 0.0717773 100.713 0.0717773H102.979C103.036 0.0717773 103.093 0.0829321 103.146 0.104605C103.199 0.126277 103.247 0.158043 103.287 0.198089C103.327 0.238135 103.359 0.285676 103.381 0.337998C103.403 0.390321 103.414 0.446399 103.414 0.503032V24.6803C103.421 24.7406 103.414 24.8015 103.395 24.8591C103.376 24.9168 103.345 24.9698 103.304 25.0147C103.263 25.0596 103.213 25.0955 103.157 25.1199C103.101 25.1443 103.04 25.1568 102.979 25.1565Z" fill="#3C3C3C"/>
<path d="M124.476 17.2323C124.489 18.3787 124.267 19.5158 123.823 20.5745C123.409 21.5697 122.793 22.47 122.013 23.2196C121.233 23.9691 120.307 24.552 119.29 24.932C117.114 25.7468 114.712 25.7468 112.535 24.932C111.52 24.5503 110.594 23.9663 109.815 23.216C109.043 22.4607 108.427 21.5635 108.002 20.5745C107.558 19.5158 107.336 18.3787 107.349 17.2323C107.335 16.0887 107.557 14.9544 108.002 13.8991C108.421 12.913 109.04 12.0224 109.819 11.2823C110.599 10.5421 111.523 9.96806 112.535 9.59549C114.712 8.78067 117.114 8.78067 119.29 9.59549C120.299 9.9861 121.223 10.5657 122.01 11.3025C122.786 12.0373 123.403 12.9207 123.823 13.8991C124.268 14.9544 124.49 16.0887 124.476 17.2323ZM121.203 17.2323C121.207 16.502 121.087 15.7763 120.85 15.085C120.631 14.425 120.283 13.8144 119.825 13.2881C119.37 12.7592 118.804 12.3359 118.166 12.0482C117.451 11.7391 116.679 11.5795 115.899 11.5795C115.119 11.5795 114.347 11.7391 113.633 12.0482C112.994 12.3359 112.428 12.7592 111.973 13.2881C111.516 13.8144 111.168 14.425 110.949 15.085C110.477 16.4784 110.477 17.9862 110.949 19.3796C111.174 20.0369 111.521 20.6465 111.973 21.1765C112.427 21.7108 112.993 22.1402 113.633 22.4343C114.349 22.7378 115.12 22.8943 115.899 22.8943C116.678 22.8943 117.449 22.7378 118.166 22.4343C118.805 22.1402 119.371 21.7108 119.825 21.1765C120.277 20.6465 120.625 20.0369 120.85 19.3796C121.084 18.6938 121.204 17.9745 121.203 17.2503V17.2323Z" fill="#3C3C3C"/>
<path d="M135.674 11.9673H132.373C132.316 11.9661 132.259 11.9764 132.205 11.9977C132.152 12.0189 132.104 12.0506 132.063 12.0909C132.022 12.1312 131.99 12.1792 131.969 12.2321C131.947 12.285 131.937 12.3416 131.938 12.3986V20.1252C131.87 20.8433 132.06 21.5621 132.473 22.1557C132.695 22.3745 132.963 22.5425 133.257 22.648C133.552 22.7535 133.866 22.794 134.178 22.7667C134.482 22.76 134.785 22.7299 135.084 22.6768L135.456 22.587C135.52 22.5709 135.586 22.5691 135.651 22.5816C135.715 22.5942 135.776 22.6207 135.829 22.6594C135.882 22.6981 135.926 22.7479 135.957 22.8053C135.988 22.8627 136.006 22.9262 136.009 22.9913L136.073 24.6175C136.076 24.7139 136.047 24.8088 135.992 24.8881C135.936 24.9674 135.857 25.0269 135.764 25.0577C135.466 25.1432 135.163 25.2122 134.858 25.2644C134.391 25.3448 133.917 25.3839 133.443 25.3812C132.818 25.4234 132.19 25.3366 131.6 25.1263C131.01 24.916 130.471 24.5867 130.016 24.1593C129.149 23.1329 128.722 21.8102 128.828 20.4756V12.3896C128.828 12.333 128.817 12.2769 128.795 12.2246C128.773 12.1722 128.741 12.1247 128.701 12.0846C128.66 12.0446 128.612 12.0128 128.56 11.9912C128.507 11.9695 128.45 11.9583 128.393 11.9583H126.226C126.108 11.9583 125.995 11.912 125.912 11.8294C125.829 11.7468 125.782 11.6349 125.782 11.5181V9.88292C125.782 9.82552 125.793 9.7687 125.816 9.71578C125.838 9.66287 125.871 9.61492 125.913 9.57476C125.954 9.53459 126.003 9.50301 126.057 9.48188C126.111 9.46074 126.168 9.45047 126.226 9.45167H128.393C128.509 9.44931 128.62 9.4019 128.701 9.31959C128.783 9.23728 128.828 9.12664 128.828 9.01143V5.39068C128.827 5.33329 128.837 5.27625 128.859 5.22288C128.88 5.16952 128.912 5.12091 128.953 5.07991C128.993 5.03891 129.041 5.00634 129.095 4.9841C129.148 4.96187 129.206 4.95043 129.263 4.95044H131.467C131.585 4.95044 131.698 4.99682 131.781 5.07938C131.864 5.16194 131.911 5.27392 131.911 5.39068V8.98447C131.91 9.04186 131.92 9.0989 131.941 9.15227C131.963 9.20563 131.995 9.25424 132.035 9.29524C132.076 9.33624 132.124 9.36881 132.177 9.39105C132.231 9.41328 132.288 9.42472 132.346 9.42471H135.683C135.74 9.42349 135.797 9.4338 135.851 9.45504C135.904 9.47628 135.952 9.508 135.993 9.54829C136.034 9.58859 136.066 9.63662 136.087 9.68949C136.109 9.74237 136.119 9.799 136.118 9.85597V11.5361C136.118 11.5935 136.106 11.6503 136.084 11.7032C136.061 11.7561 136.029 11.8041 135.987 11.8442C135.946 11.8844 135.897 11.916 135.843 11.9371C135.789 11.9582 135.732 11.9685 135.674 11.9673Z" fill="#3C3C3C"/>
</g>
<defs>
<clipPath id="clip0">
<rect width="136" height="33" fill="white"/>
</clipPath>
</defs>
</svg>
