<?xml version="1.0" encoding="utf-8"?>
<!-- Generator: Adobe Illustrator 25.1.0, SVG Export Plug-In . SVG Version: 6.00 Build 0)  -->
<svg version="1.1" id="Ebene_1" xmlns="http://www.w3.org/2000/svg" xmlns:xlink="http://www.w3.org/1999/xlink" x="0px" y="0px"
	 viewBox="0 0 427 75" style="enable-background:new 0 0 427 75;" xml:space="preserve">
<style type="text/css">
	.st0{fill-rule:evenodd;clip-rule:evenodd;fill:#00044A;}
	.st1{fill:#561EB0;}
</style>
<path class="st0" d="M287.2,0v53h-9.3V0H287.2z M326.3,19.3v-4.5h9.3V53h-9.3v-4.8c-1,1.1-2.1,2.2-3.3,3.1c-3.1,2.1-6.9,3-10.7,2.5
	c-4.6-0.3-8.9-2.3-12-5.5c-3.1-3.2-5.1-7.3-5.6-11.8c-0.8-5.3,0.6-10.7,3.8-15c1.5-2.1,3.4-3.8,5.6-5.1c2.2-1.3,4.7-2.1,7.2-2.4
	c4-0.7,8.1,0.1,11.6,2.2C324,17.3,325.2,18.3,326.3,19.3z M315.3,22.3c-1.5,0-3,0.2-4.4,0.8s-2.7,1.4-3.8,2.4
	c-1.1,1.1-1.9,2.3-2.5,3.7c-0.6,1.4-0.9,2.9-0.8,4.4c-0.1,1.5,0.1,3,0.6,4.5c0.5,1.4,1.3,2.7,2.4,3.9c1,1.1,2.3,2,3.7,2.6
	c1.4,0.6,2.9,0.9,4.4,1c3,0.1,6-0.9,8.2-2.9c2.2-2,3.6-4.8,3.8-7.8c0.1-1.6,0-3.2-0.6-4.7c-0.5-1.5-1.3-2.9-2.4-4.1
	c-1.1-1.2-2.4-2.1-3.9-2.8C318.5,22.6,316.9,22.3,315.3,22.3z M209,36.2c0.3,6.4,5.1,9.8,10.8,10c2.1,0.1,4.2-0.2,6.1-1
	c1.9-0.8,3.7-2,5-3.5l5.6,5.4c-3.2,3.7-7.7,6.1-12.6,6.7c-4.4,0.7-8.8,0.2-12.9-1.5c-3-1.3-5.7-3.3-7.6-6c-1.9-2.7-3.1-5.8-3.4-9
	c-0.6-4-0.1-8.1,1.5-11.9c1.2-2.9,3-5.4,5.5-7.4c2.4-2,5.3-3.3,8.4-3.8c2.6-0.7,5.3-0.8,8-0.3c2.7,0.4,5.2,1.4,7.5,2.9
	c2.2,1.4,4.1,3.3,5.5,5.6c1.4,2.2,2.3,4.8,2.6,7.4c0.3,2.1,0.3,4.3,0.3,6.5H209z M229.7,29.8c-0.1-1.5-0.5-2.9-1.3-4.1
	c-0.8-1.2-2-2.2-3.3-2.8c-2-1-4.3-1.4-6.5-1.2c-2.2,0.2-4.4,1.1-6.1,2.5c-1,0.6-1.8,1.4-2.4,2.4c-0.6,1-1,2.1-1.1,3.2H229.7z
	 M418.7,41.8l5.6,5.2c-3.3,3.7-7.8,6.1-12.8,6.7c-5.1,0.8-10.3-0.1-14.9-2.5c-2.5-1.4-4.7-3.5-6.3-5.9c-1.6-2.4-2.5-5.2-2.8-8.1
	c-0.6-4.2,0-8.5,1.8-12.4c1.2-2.8,3.1-5.2,5.5-7.1c2.4-1.9,5.2-3.1,8.2-3.6c2.6-0.6,5.3-0.7,7.9-0.3c2.6,0.4,5.2,1.4,7.4,2.8
	c2.3,1.4,4.2,3.3,5.6,5.6c1.4,2.2,2.3,4.8,2.7,7.4c0.3,2.1,0.3,4.3,0.3,6.5h-30.1c0,2.1,0.6,4.1,1.8,5.7c1.2,1.7,2.9,2.9,4.9,3.5
	c2.1,0.8,4.4,1,6.7,0.8c2.3-0.3,4.4-1.1,6.3-2.4l2.3-1.9H418.7z M417.5,29.6c0-1-0.2-2-0.6-2.9c-0.4-0.9-1-1.7-1.8-2.4
	c-1.2-1-2.5-1.7-3.9-2.2c-1.5-0.5-3-0.7-4.5-0.6c-1.5,0.1-3,0.5-4.4,1.2c-1.4,0.7-2.6,1.6-3.6,2.8c-1,1.2-1.6,2.6-1.7,4.2H417.5z
	 M121.9,14.6h9.3v23.1c0,1,0.1,1.9,0.4,2.8c0.3,0.9,0.8,1.7,1.5,2.4c0.7,0.7,1.4,1.3,2.3,1.7c0.9,0.4,1.8,0.6,2.8,0.7
	c2.3,0.4,4.7-0.1,6.6-1.3c0.9-0.6,1.6-1.4,2.2-2.3c0.5-0.9,0.8-2,0.8-3l0.2-10.6V14.6h9.3v22.5c0.1,3.3-0.8,6.6-2.6,9.4
	c-1.2,1.8-2.8,3.4-4.6,4.5c-1.8,1.2-3.9,2-6.1,2.3c-4.3,0.9-8.7,0.6-12.8-1c-2.5-0.9-4.7-2.4-6.3-4.5c-1.6-2-2.7-4.5-3-7.1
	c-0.1-1-0.2-2.1-0.2-3.1V14.9c0-0.1,0-0.3,0-0.4V14.6z M353.9,53h-9.3v-0.9V30.5c-0.1-3.2,0.7-6.4,2.4-9.2c1.2-1.8,2.8-3.4,4.7-4.6
	c1.9-1.2,4-2,6.2-2.4c4.2-0.9,8.5-0.5,12.5,1c2.6,0.9,4.8,2.5,6.5,4.6s2.7,4.6,3,7.3c0.2,1,0.3,2,0.3,3V53h-9.3v-1.2V30.1
	c0-1-0.1-1.9-0.4-2.8c-0.3-0.9-0.8-1.7-1.5-2.4c-0.7-0.7-1.4-1.3-2.3-1.7s-1.8-0.6-2.8-0.7c-2.2-0.4-4.5,0-6.5,1.2
	c-0.9,0.6-1.7,1.4-2.2,2.4s-0.8,2-0.8,3.1c-0.3,3-0.3,6-0.3,9.1v14.9V53z M187.6,24.7c-1.3-1.3-3-2.3-4.8-2.8
	c-1.8-0.5-3.7-0.6-5.6-0.2c-0.5,0-0.9,0.2-1.3,0.4c-0.4,0.2-0.7,0.5-1,0.9c-0.3,0.4-0.4,0.8-0.5,1.3c-0.1,0.4,0,0.9,0.1,1.3
	c0.1,0.5,0.3,0.9,0.6,1.3c0.3,0.4,0.7,0.6,1.2,0.8c2.3,0.9,4.7,1.5,6.9,2.5c2.5,0.9,4.8,2.1,7.1,3.4c6,4,5,12.1,1.5,15.9
	c-2.6,2.6-6,4.2-9.6,4.5c-3.6,0.5-7.3,0.2-10.8-0.9c-1.8-0.5-3.6-1.4-5.1-2.5c-1.5-1.2-2.7-2.6-3.7-4.3l5.7-4.6l2.1,1.6
	c1.7,1.4,3.8,2.3,6,2.7c2.2,0.4,4.5,0.2,6.6-0.6c0.5-0.1,1-0.3,1.4-0.6c0.4-0.3,0.7-0.7,1-1.2c0.2-0.5,0.3-1,0.3-1.5
	c0-0.5-0.2-1-0.4-1.5c-0.5-0.8-1.2-1.4-2.1-1.8l-8.3-3c-2.8-0.8-5.3-2.4-7.2-4.6c-1.4-1.9-2.1-4.2-2.1-6.5c0.1-2.3,0.9-4.6,2.4-6.4
	c2.2-2.6,5.4-4.2,8.9-4.5c4-0.6,8.1,0.1,11.6,2.1c1.6,1.1,3.1,2.2,4.5,3.4L187.6,24.7z M246.6,14.9h9v5.4c3.3-5.5,8.4-6.7,14.3-6.1
	v8.8l-3.9-0.1c-6.3,0-10.4,3.9-10.4,10.1V53h-9V14.9z"/>
<path class="st1" d="M14.7,29.5c2.9,0,5.8-0.9,8.2-2.5c2.4-1.6,4.3-3.9,5.4-6.5c1.1-2.7,1.4-5.6,0.8-8.4s-2-5.4-4-7.5
	c-2.1-2-4.7-3.4-7.5-4C14.8,0,11.8,0.3,9.1,1.4c-2.7,1.1-5,3-6.6,5.4C0.9,9.2,0,12,0,14.9c0,3.9,1.6,7.6,4.3,10.3
	C7.1,27.9,10.8,29.5,14.7,29.5z"/>
<path class="st1" d="M46.2,0.6h29v28.9h-29V0.6z"/>
<path class="st1" d="M56.5,37.8c0,9.8-8.4,19.3-18.9,19.3c-10.5,0-18.8-9.5-18.8-19.3H0C0,57.3,16.8,75,37.6,75s37.7-17.7,37.7-37.2
	H56.5z"/>
</svg>
