<svg xmlns="http://www.w3.org/2000/svg" viewBox="0 0 165.93 33"><defs><style>.cls-1{fill:#1e2533;}.cls-2{fill:#5478f0;}</style></defs><g id="Layer_2" data-name="Layer 2"><g id="Layer_1-2" data-name="Layer 1"><path class="cls-1" d="M25,21.61V9.78h2.37V21.53c0,2.45,1.47,4.11,4.32,4.11S36,24,36,21.53V9.78h2.33V21.61c0,3.87-2.77,6.33-6.68,6.33S25,25.48,25,21.61Z"/><path class="cls-1" d="M50.62,24.1c0,2.37-2,3.84-4.74,3.84a5.22,5.22,0,0,1-5.07-3l1.9-1.11a3.08,3.08,0,0,0,3.17,2c1.34,0,2.53-.48,2.53-1.74,0-2.73-7.12-1.19-7.12-5.78,0-2.25,1.94-3.8,4.51-3.8a4.9,4.9,0,0,1,4.59,2.66l-1.86,1a2.82,2.82,0,0,0-2.73-1.62c-1.15,0-2.26.56-2.26,1.7C43.46,21,50.62,19.39,50.62,24.1Z"/><path class="cls-1" d="M59.05,25.84A4.23,4.23,0,0,0,62.73,24l1.9,1.07A6.41,6.41,0,0,1,59,27.94a6.5,6.5,0,0,1-6.84-6.69,6.46,6.46,0,0,1,6.68-6.69c3.84,0,6.33,3.17,6.33,6.73a8.26,8.26,0,0,1-.08,1H54.42A4.39,4.39,0,0,0,59.05,25.84ZM54.42,20.3h8.51a4,4,0,0,0-4.12-3.68A4.22,4.22,0,0,0,54.42,20.3Z"/><path class="cls-1" d="M73.93,14.6v2.34a3.57,3.57,0,0,0-4,3.91v6.77H67.76V14.88H70V17A4,4,0,0,1,73.93,14.6Z"/><path class="cls-1" d="M94.32,19.83c0,4.55-3.36,8.11-8.74,8.11a9.17,9.17,0,0,1-9.42-9.26A9.14,9.14,0,0,1,85.5,9.42a8.87,8.87,0,0,1,7.72,4.31l-2.06,1.19a6.4,6.4,0,0,0-5.7-3.2,6.75,6.75,0,0,0-7,7,6.75,6.75,0,0,0,7.08,6.92c3.68,0,5.89-2.06,6.33-4.71H85.38V18.76h8.9v1.07Z"/><path class="cls-1" d="M108.09,14.84V27.58h-2.21V25.76a4.55,4.55,0,0,1-4.12,2.18c-3,0-4.94-2-4.94-5.27V14.84H99v7.68a2.92,2.92,0,0,0,3.17,3.24c2,0,3.68-1.19,3.68-4.19V14.8h2.21Z"/><path class="cls-1" d="M110.62,11a1.51,1.51,0,0,1,1.51-1.5,1.49,1.49,0,0,1,0,3A1.43,1.43,0,0,1,110.62,11Zm.36,3.8h2.21V27.58H111Z"/><path class="cls-1" d="M129.85,9.74V27.58h-2.22V25.4a5.54,5.54,0,0,1-4.82,2.54,6.53,6.53,0,0,1-6.45-6.69,6.53,6.53,0,0,1,6.45-6.69,5.45,5.45,0,0,1,4.82,2.54V9.82h2.22Zm-2.26,11.47a4.53,4.53,0,1,0-4.54,4.55A4.42,4.42,0,0,0,127.59,21.21Z"/><path class="cls-1" d="M132.82,11a1.5,1.5,0,0,1,1.5-1.5,1.49,1.49,0,0,1,0,3A1.45,1.45,0,0,1,132.82,11Zm.39,3.8h2.22V27.58h-2.22Z"/><path class="cls-1" d="M150.07,19.75v7.83h-2.22V19.9a2.92,2.92,0,0,0-3.16-3.24c-2.06,0-3.68,1.19-3.68,4.19v6.77h-2.22V14.88H141V16.7a4.53,4.53,0,0,1,4.11-2.18C148.13,14.52,150.07,16.5,150.07,19.75Z"/><path class="cls-1" d="M165.93,14.84V27c0,3.95-3.16,6-6.49,6-2.85,0-5-1.11-6.05-3.13l1.94-1.1c.59,1.18,1.66,2.13,4.15,2.13,2.65,0,4.27-1.5,4.27-3.91V25.17A5.53,5.53,0,0,1,159,27.7a6.63,6.63,0,0,1,0-13.25A5.42,5.42,0,0,1,163.75,17V14.8h2.18Zm-2.18,6.29a4.55,4.55,0,1,0-4.54,4.55A4.46,4.46,0,0,0,163.75,21.13Z"/><path class="cls-2" d="M8.35,13.35A2.76,2.76,0,1,0,5.6,10.59,2.77,2.77,0,0,0,8.35,13.35Z"/><polygon class="cls-2" points="16.16 22.55 0.28 27.71 0 33 16.43 27.66 16.16 22.55"/><polygon class="cls-2" points="15.7 13.71 0.76 18.57 0.48 23.86 15.96 18.83 15.7 13.71"/><path class="cls-2" d="M15.28,6.06H1.42V3L8.35,0l6.93,3Z"/></g></g></svg>