<svg xmlns="http://www.w3.org/2000/svg" width="500" height="100" viewBox="0 0 500 100">
  <g fill="none" fill-rule="evenodd">
    <path fill="#0F334D" d="M347.79,2.889 L345.536667,16.001 L342.566667,16.001 C336.626667,16.001 335.703333,16.923 334.37,25.2203333 C334.37,25.3226667 334.166667,25.9373333 334.063333,26.4496667 L343.693333,26.4496667 L341.44,38.947 L331.913,38.947 C329.147,54.5176667 325.049667,77.6685333 325.049667,77.6685333 C322.079,95.0829667 319.415667,100 304.357333,100 L297.494,100 L299.747333,86.8879667 L302.718333,86.8879667 C308.25,86.8879333 309.581667,85.9659 311.015667,77.6685333 L320.235,25.118 C323.205667,5.962 327.610667,2.889 343.693333,2.889 L347.79,2.889 Z M129.936333,26.4496667 C138.029,26.4496667 141.409667,30.957 139.258333,42.02 L136.492667,55.9516667 C135.160667,62.5076667 137.209667,66.298 142.843667,66.298 C147.965667,66.298 151.551,61.176 152.985,53.8006667 L158.311667,26.4496667 L172.653,26.4496667 L166.097,60.459 C165.38,64.1466667 165.994667,65.4783333 169.272667,65.4783333 L171.321333,65.4783333 L169.170333,77.6685333 L162.511667,77.6685333 C157.389667,77.6685333 154.009333,76.2344 152.575333,72.6491 C149.399667,76.3368333 144.995,78.6929333 138.951,78.6929333 C126.556,78.7953667 118.975667,70.9076333 121.946333,55.747 L124.507333,43.7616667 C125.326667,39.7666667 124.507333,38.6396667 121.639,38.6396667 L120,38.6396667 L122.253667,26.4496667 L129.936333,26.4496667 Z M195.292,78.6929333 C207.891667,78.6929333 215.984333,72.4442 217.521,63.4296667 C219.467333,52.059 210.247667,48.4736667 202.462333,46.1176667 C197.033333,44.4786667 192.218667,43.4543333 192.731,40.791 C193.140667,38.3323333 195.394333,36.6933333 199.184333,36.6933333 C203.896667,36.6933333 207.482,39.0493333 209.735667,42.43 L221.106333,35.0543333 C217.316,29.4203333 209.633,25.4253333 199.901667,25.4253333 C188.838333,25.4253333 180.336,31.1616667 178.901667,39.4593333 C176.853,51.2396667 186.072333,54.62 193.857667,56.8736667 C199.287,58.4103333 204.101667,59.4346667 203.589333,62.303 C203.077,65.2736667 200.413667,66.9125667 196.726,66.9125667 C191.604,66.9125667 187.711333,64.1466667 185.150333,59.8443333 L173.062667,67.7320667 C176.545667,73.5710333 183.921333,78.6929333 195.292,78.6929333 Z M428.986667,26.4496667 C437.08,26.4496667 440.256667,30.957 438.103333,42.02 L435.336667,56.1566667 C434.006667,63.02 435.646667,66.5026667 441.176667,66.5026667 C446.503333,66.5026667 450.396667,60.8686667 451.83,53.3906667 L456.543333,26.4496667 L470.783333,26.4496667 L465.353333,58.0003333 C464.43,63.6346667 466.48,66.1953333 470.373333,66.1953333 C478.566667,66.1953333 483.28,57.4883333 485.226667,46.3226667 C486.863333,37.4106667 485.736667,31.162 484.1,26.4496667 L498.543333,26.4496667 C499.67,31.674 500.9,38.7423333 499.053333,48.5763333 C496.29,64.0443333 487.173333,78.6929333 470.166667,78.6929333 C461.973333,78.6929333 457.463333,76.1319667 455.313333,71.4198333 C450.703333,76.1319667 444.66,78.6929333 437.593333,78.6929333 C425.606667,78.6929333 418.13,70.293 420.996667,55.747 L423.353333,43.7616667 C424.173333,39.7666667 423.353333,38.6396667 420.483333,38.6396667 L418.946667,38.6396667 L421.203333,26.4496667 L428.986667,26.4496667 Z M388.216667,78.6929333 C403.48,78.6929333 413.93,68.3467 416.49,55.2346667 C419.356667,39.9713333 410.036667,25.4253333 392.213333,25.4253333 C377.563333,25.4253333 366.5,35.7713333 363.94,48.8833333 C361.07,64.1466667 370.393333,78.6929333 388.216667,78.6929333 Z M233.468,57.0786667 L233.519667,57.1966667 C233.506,57.192 233.491667,57.1866667 233.476333,57.181 C234.705667,62.815 239.213,66.5026667 246.281333,66.5026667 C251.300667,66.5026667 255.398333,64.3516667 258.676333,60.1516667 L269.432333,67.2198667 C264.412667,74.0832 257.344667,78.6929333 245.461667,78.6929333 C226.818,78.6929333 218.315667,64.0443333 220.979,49.0883333 C223.306,36.0583333 234.596333,27.1716667 246.629667,25.6556667 C247.74,25.5036667 248.877333,25.4253333 250.038333,25.4253333 L250.153,25.4253333 L250.276333,25.4253333 C250.368,25.4253333 250.456,25.4266667 250.540667,25.4293333 C265.912667,25.6783333 275.131,37.3636667 273.497667,51.9566667 L272.924333,57.0786667 L233.468,57.0786667 Z M366.64,2.889 L356.293333,61.4833333 C355.78,64.1466667 356.6,65.171 359.263333,65.171 L360.8,65.171 L358.546667,77.6685333 L352.196667,77.6685333 C340.723333,77.6685333 340.516667,70.6003333 342.156667,61.381 L352.4,2.889 L366.64,2.889 Z M283.999333,26.4496667 C290.657667,26.4496667 293.116333,29.6253333 293.526,34.5423333 C297.213667,29.0106667 302.438,26.4496667 308.891667,26.4496667 L315.447667,26.4496667 L312.886667,40.586 L307.252667,40.586 C300.184333,40.586 295.267333,43.7616667 293.423667,53.2883333 L288.609,77.6685333 L274.267667,77.6685333 L280.823667,43.7616667 C281.745667,40.074 280.823667,38.6396667 277.545667,38.6396667 L275.906667,38.6396667 L278.058,26.4496667 L283.999333,26.4496667 Z M388.933333,65.6833333 C380.943333,65.6833333 376.13,58.4103333 377.46,50.5226667 C378.69,43.0446667 385.143333,38.23 391.493333,38.23 C399.69,38.435 404.3,45.708 402.966667,53.5956667 C401.74,61.0736667 395.593333,65.6833333 388.933333,65.6833333 Z M260.049333,45.8103333 C258.801333,40.4836667 254.706333,37.7176667 248.765,37.7176667 C242.823667,37.7176667 237.949333,40.9956667 235.259333,45.8103333 L260.049333,45.8103333 Z"/>
    <path fill="#5488F0" d="M88.7373333,30.4346667 C92.1966667,30.4346667 95.273,31.809 97.2893333,34.255 C99.306,36.7013333 100.097667,40.019 99.4903333,43.4783333 C97.307,55.9096667 94.038,74.5251 91.855,86.9565333 C91.2476667,90.4158667 89.2906667,93.7335333 86.415,96.1796667 C83.5393333,98.6257667 79.9803333,100 76.521,100 L33.0426667,100 C29.5834667,100 26.5071333,98.6257667 24.4905667,96.1796667 C22.474,93.7335333 21.6823667,90.4158667 22.2898667,86.9565333 L23.8168667,78.2608667 L58.5993333,78.2608667 C62.0586667,78.2608667 65.6176667,76.8866667 68.4936667,74.4405333 C71.3693333,71.9944 73.326,68.6767333 73.9333333,65.2173333 L80.0416667,30.4346667 L88.7373333,30.4346667 Z"/>
    <path fill="#00E673" d="M54.431,69.5652333 L10.9526,69.5652333 C7.49326667,69.5652333 4.4169,68.191 2.40033333,65.745 C0.383766667,63.2986667 -0.407833333,59.981 0.199633333,56.5216667 C2.3827,44.0903333 5.6517,25.475 7.83473333,13.0433333 C8.44223333,9.584 10.3990667,6.26633333 13.2747333,3.82033333 C16.1503667,1.37433333 19.7092667,0 23.1687667,0 L66.647,0 C70.1063333,0 73.1826667,1.37433333 75.1993333,3.82033333 C77.2156667,6.26633333 78.0073333,9.584 77.4,13.0433333 L75.873,21.739 L58.4816667,21.739 C58.2166667,21.748 58.1503333,21.7436667 57.8826667,21.7796667 C55.9386667,22.0403333 54.096,23.638 53.5146667,25.495 C53.433,25.7566667 53.4256667,25.8233333 53.3703333,26.087 L51.081,39.1236667 C51.0613333,39.234 51.0403333,39.344 51.017,39.4543333 C50.0453333,44.0203333 45.312,47.786 40.912,47.826 C37.9753333,47.8346667 35.0403333,47.8346667 32.1067,47.826 C27.4169667,47.7833333 24.2119,43.6586667 24.994,39.1236667 L28.0468667,21.739 L19.3512,21.739 L16.2959667,39.1373333 C15.9643,41.0603333 15.9438333,42.9773333 16.2506333,44.7943333 C17.3943333,51.5666667 23.2026667,56.2983333 30.0963667,56.5133333 C33.1956333,56.61 36.3216667,56.5306667 39.4373333,56.5213333 C41.2246667,56.5053333 43.051,56.2233333 44.8406667,55.6746667 C52.2496667,53.4026667 58.4636667,46.4683333 59.7743333,39.1373333 L61.3023333,30.4346667 L74.346,30.4346667 L69.765,56.5216667 C69.1573333,59.981 67.2006667,63.2986667 64.325,65.745 C61.4493333,68.191 57.8903333,69.5652333 54.431,69.5652333 Z"/>
  </g>
</svg>
