<?xml version="1.0" encoding="UTF-8"?>
<svg width="177px" height="32px" viewBox="0 0 177 32" version="1.1" xmlns="http://www.w3.org/2000/svg" xmlns:xlink="http://www.w3.org/1999/xlink">
    <!-- Generator: Sketch 57.1 (83088) - https://sketch.com -->
    <title>m-logo-wisepops</title>
    <desc>Created with Sketch.</desc>
    <g id="m-logo-wisepops" stroke="none" stroke-width="1" fill="none" fill-rule="evenodd">
        <g id="logo">
            <rect id="bound" fill-opacity="0" fill="#D8D8D8" x="0" y="0" width="176.516129" height="31.8088411"></rect>
            <g id="logomark" transform="translate(0.000000, 1.223417)">
                <g id="Fill-5"></g>
                <path d="M13.483871,15.9044205 C13.483871,15.9044205 12.473813,22.3199503 7.59705334,27.1895363 C5.35566385,29.4275163 2.32015074,30.0358235 0.822652112,28.5471048 C-0.674818628,27.0581109 -0.0708646995,24.0323497 2.17055282,21.7942293 C7.04731246,16.9246433 13.483871,15.9044205 13.483871,15.9044205 Z M15.9354839,15.9044205 C15.9354839,15.9044205 22.3720424,16.9246433 27.248802,21.7942293 C29.4902195,24.0323497 30.0941735,27.0581109 28.5967027,28.5471048 C27.0992041,30.0358235 24.063691,29.4275163 21.8223015,27.1895363 C16.9455419,22.3199503 15.9354839,15.9044205 15.9354839,15.9044205 Z M7.59705334,2.17247085 C12.473813,7.04205682 13.483871,13.4575866 13.483871,13.4575866 C13.483871,13.4575866 7.04731246,12.4373639 2.17055282,7.5677779 C-0.0708646995,5.32965749 -0.674818628,2.30389625 0.822652112,0.81490235 C2.32015074,-0.673816315 5.35566385,-0.0655091236 7.59705334,2.17247085 Z M28.5967027,0.81490235 C30.0941735,2.30389625 29.4902195,5.32965749 27.248802,7.5677779 C22.3720424,12.4373639 15.9354839,13.4575866 15.9354839,13.4575866 C15.9354839,13.4575866 16.9455419,7.04205682 21.8223015,2.17247085 C24.063691,-0.0655091236 27.0992041,-0.673816315 28.5967027,0.81490235 Z" id="Combined-Shape" fill="#F63749"></path>
            </g>
            <g id="logotype" transform="translate(42.091129, 1.345759)" fill="#1B2733" fill-rule="nonzero">
                <path d="M14.9854839,23.1225806 L12.1048387,14.4057348 L9.25483871,23.1225806 L5.08709677,23.1225806 L9.23705556e-14,7.82986858 L4.47419355,7.82986858 L7.38548387,17.6172043 L10.4806452,7.82986858 L13.6983871,7.82986858 L16.8241935,17.6172043 L19.7048387,7.82986858 L24.2096774,7.82986858 L19.1532258,23.1225806 L14.9854839,23.1225806 Z M31.166129,2.6609319 C31.166129,4.12903226 29.9709677,5.3218638 28.4693548,5.3218638 C27.0290323,5.3218638 25.8032258,4.12903226 25.8032258,2.6609319 C25.8032258,1.19283154 27.0290323,-2.84217094e-14 28.4693548,-2.84217094e-14 C29.9709677,-2.84217094e-14 31.166129,1.19283154 31.166129,2.6609319 Z M26.3854839,23.1225806 L26.3854839,7.82986858 L30.583871,7.82986858 L30.583871,23.1225806 L26.3854839,23.1225806 Z M45.4467742,18.5653524 C45.4467742,21.5321386 42.933871,23.4590203 39.5016129,23.4590203 C37.0806452,23.4590203 34.7822581,22.5414576 33.433871,20.6145759 L36.2532258,18.2289128 C36.9580645,19.2994026 38.2758065,19.9111111 39.716129,19.9111111 C40.7887097,19.9111111 41.616129,19.544086 41.616129,18.8100358 C41.616129,18.1371565 41.0032258,17.8618877 39.3483871,17.4031063 L38.2758065,17.0972521 C35.4870968,16.3632019 34.0774194,14.5280765 34.1387097,12.1424134 C34.1693548,9.35913978 36.5290323,7.49342891 39.7467742,7.49342891 C41.983871,7.49342891 43.7306452,8.31923536 44.9870968,9.66499403 L42.6274194,12.2035842 C41.7693548,11.4389486 40.6967742,10.9495818 39.5629032,10.9495818 C38.6129032,10.9495818 37.9387097,11.2554361 37.9387097,11.89773 C37.9387097,12.4482676 38.2758065,12.7541219 39.7774194,13.1823178 L41.2177419,13.5799283 C43.9145161,14.3445639 45.4467742,16.0573477 45.4467742,18.5653524 Z M47.5919355,15.4762246 C47.5919355,10.9495818 50.9935484,7.49342891 55.6516129,7.49342891 C59.666129,7.49342891 63.1903226,10.0626045 63.1903226,15.0174432 C63.1903226,15.3844683 63.1903226,15.8126643 63.1290323,16.4549582 L51.6677419,16.4549582 C51.9129032,18.5041816 53.7209677,19.6358423 55.7435484,19.6358423 C57.6435484,19.6358423 59.0225806,18.748865 59.6967742,17.7089606 L62.8225806,20.0334528 C61.4129032,22.0826762 58.9306452,23.4590203 55.7129032,23.4590203 C51.1467742,23.4590203 47.5919355,20.3087216 47.5919355,15.4762246 Z M55.5290323,10.9495818 C53.966129,10.9495818 52.2193548,11.7448029 51.8209677,13.6105137 L58.9919355,13.6105137 C58.6241935,11.8059737 57.0919355,10.9495818 55.5290323,10.9495818 Z M66.2854839,29.5149343 L66.2854839,7.82986858 L70.483871,7.82986858 L70.483871,9.54265233 C71.1887097,8.56391876 72.8129032,7.49342891 74.9274194,7.49342891 C79.0032258,7.49342891 82.1290323,11.1330944 82.1290323,15.4762246 C82.1290323,19.8193548 79.0032258,23.4590203 74.9274194,23.4590203 C72.8129032,23.4590203 71.1887097,22.3885305 70.483871,21.4097969 L70.483871,29.5149343 L66.2854839,29.5149343 Z M77.8693548,15.4762246 C77.8693548,13.0905615 76.3064516,11.3166069 74.0080645,11.3166069 C71.7096774,11.3166069 70.1467742,13.0905615 70.1467742,15.4762246 C70.1467742,17.8618877 71.7096774,19.6358423 74.0080645,19.6358423 C76.3064516,19.6358423 77.8693548,17.8618877 77.8693548,15.4762246 Z M100.301613,15.4762246 C100.301613,19.9416965 96.6854839,23.4590203 92.2419355,23.4590203 C87.7983871,23.4590203 84.1822581,19.9416965 84.1822581,15.4762246 C84.1822581,11.0107527 87.7983871,7.49342891 92.2419355,7.49342891 C96.6854839,7.49342891 100.301613,11.0107527 100.301613,15.4762246 Z M88.4112903,15.4762246 C88.4112903,17.8313023 90.0354839,19.544086 92.2419355,19.544086 C94.4483871,19.544086 96.0419355,17.8313023 96.0419355,15.4762246 C96.0419355,13.121147 94.4483871,11.4083632 92.2419355,11.4083632 C90.0354839,11.4083632 88.4112903,13.121147 88.4112903,15.4762246 Z M103.335484,29.5149343 L103.335484,7.82986858 L107.533871,7.82986858 L107.533871,9.54265233 C108.23871,8.56391876 109.862903,7.49342891 111.977419,7.49342891 C116.053226,7.49342891 119.179032,11.1330944 119.179032,15.4762246 C119.179032,19.8193548 116.053226,23.4590203 111.977419,23.4590203 C109.862903,23.4590203 108.23871,22.3885305 107.533871,21.4097969 L107.533871,29.5149343 L103.335484,29.5149343 Z M114.919355,15.4762246 C114.919355,13.0905615 113.356452,11.3166069 111.058065,11.3166069 C108.759677,11.3166069 107.196774,13.0905615 107.196774,15.4762246 C107.196774,17.8618877 108.759677,19.6358423 111.058065,19.6358423 C113.356452,19.6358423 114.919355,17.8618877 114.919355,15.4762246 Z M133.06129,18.5653524 C133.06129,21.5321386 130.548387,23.4590203 127.116129,23.4590203 C124.695161,23.4590203 122.396774,22.5414576 121.048387,20.6145759 L123.867742,18.2289128 C124.572581,19.2994026 125.890323,19.9111111 127.330645,19.9111111 C128.403226,19.9111111 129.230645,19.544086 129.230645,18.8100358 C129.230645,18.1371565 128.617742,17.8618877 126.962903,17.4031063 L125.890323,17.0972521 C123.101613,16.3632019 121.691935,14.5280765 121.753226,12.1424134 C121.783871,9.35913978 124.143548,7.49342891 127.36129,7.49342891 C129.598387,7.49342891 131.345161,8.31923536 132.601613,9.66499403 L130.241935,12.2035842 C129.383871,11.4389486 128.31129,10.9495818 127.177419,10.9495818 C126.227419,10.9495818 125.553226,11.2554361 125.553226,11.89773 C125.553226,12.4482676 125.890323,12.7541219 127.391935,13.1823178 L128.832258,13.5799283 C131.529032,14.3445639 133.06129,16.0573477 133.06129,18.5653524 Z" id="wisepops"></path>
            </g>
        </g>
    </g>
</svg>